<svg width="563" height="153" viewBox="0 0 563 153" fill="none" xmlns="http://www.w3.org/2000/svg">
<path d="M50.5981 118.189C33.8724 118.189 25.5095 107.275 25.5095 83.3182V32.8082C25.5095 10.9361 35.0924 0 54.2583 0C62.1553 0 68.2112 1.59715 72.4259 4.79146C76.6406 7.9414 79.5465 12.5554 81.1437 18.6335C82.7408 24.7115 83.5394 32.1205 83.5394 40.8605H60.6469V30.479C60.6469 27.9502 60.292 25.8428 59.5821 24.1569C58.9166 22.4267 57.4969 21.5616 55.323 21.5616C52.6168 21.5616 50.82 22.4711 49.9327 24.29C49.0897 26.109 48.6682 28.1055 48.6682 30.2794V87.0449C48.6682 90.1948 49.0675 92.768 49.8661 94.7644C50.709 96.7165 52.3284 97.6926 54.7241 97.6926C57.2086 97.6926 58.8501 96.7165 59.6487 94.7644C60.4916 92.768 60.9131 90.1504 60.9131 86.9118V68.9463H54.6576V49.9776H83.2732V118.189H73.8899L69.8971 108.34C65.8155 115.616 59.3825 118.189 50.5981 118.189Z" fill="#F94144"/>
<path d="M92.59 118.189V1.06477H139.44V23.6911H116.414V46.5171H138.508V68.9734H116.414V95.3634H140.97V118.189H92.59Z" fill="#F94144"/>
<path d="M158.805 118.189V23.558H144.897V1.06477H196.139V23.558H182.23V118.189H158.805Z" fill="#F94144"/>
<path d="M199.466 118.189L210.779 1.06477H250.508L261.622 118.189H239.461L237.798 99.2897H223.69L222.226 118.189H199.466ZM225.353 80.5897H236.001L230.877 21.0292H229.812L225.353 80.5897Z" fill="#2196F3"/>
<path d="M268.809 118.189V1.06477H304.479L314.328 72.4708L324.111 1.06477H360.113V118.189H338.685V33.8064L325.242 118.189H304.213L289.971 33.8064V118.189H268.809Z" fill="#F9C74F"/>
<path d="M370.495 118.189V1.06477H417.344V23.6911H394.319V46.5171H416.413V68.9734H394.319V95.3634H418.875V118.189H370.495Z" fill="#F9C74F"/>
<path d="M436.71 118.189V23.558H422.801V1.06477H474.043V23.558H460.135V118.189H436.71Z" fill="#F9C74F"/>
<path d="M475.641 118.189L486.954 1.06477H526.683L537.796 118.189H515.636L513.972 99.2897H499.864L498.4 118.189H475.641ZM501.528 80.5897H512.175L507.051 21.0292H505.986L501.528 80.5897Z" fill="#F9C74F"/>
<path d="M10.6063 143.429C8.43871 143.429 6.64061 143.098 5.21199 142.435C3.79978 141.772 2.74063 140.828 2.03452 139.602C1.34484 138.376 1 136.919 1 135.229V126.06H5.26125V135.03C5.26125 136.621 5.72104 137.855 6.64061 138.733C7.57661 139.594 8.8985 140.025 10.6063 140.025C12.3141 140.025 13.6277 139.594 14.5473 138.733C15.4833 137.855 15.9513 136.621 15.9513 135.03V126.06H20.1879V135.229C20.1879 136.919 19.8431 138.376 19.1534 139.602C18.4637 140.828 17.4046 141.772 15.976 142.435C14.5637 143.098 12.7739 143.429 10.6063 143.429Z" fill="#959595"/>
<path d="M24.6241 143.131V126.06H28.5405L37.6049 134.633C37.7855 134.782 38.0072 134.997 38.27 135.279C38.5491 135.56 38.8365 135.858 39.1321 136.173C39.4276 136.471 39.6822 136.736 39.8956 136.968H40.1173C40.1009 136.637 40.0763 136.223 40.0434 135.726C40.027 135.229 40.0188 134.815 40.0188 134.484V126.06H44.083V143.131H40.2405L31.25 134.558C30.823 134.161 30.3797 133.722 29.9199 133.241C29.4601 132.761 29.0906 132.371 28.8115 132.073H28.6144C28.6308 132.289 28.6473 132.653 28.6637 133.167C28.6801 133.68 28.6883 134.26 28.6883 134.906V143.131H24.6241Z" fill="#959595"/>
<path d="M48.6061 143.131V126.06H52.8674V139.503H63.656V143.131H48.6061Z" fill="#959595"/>
<path d="M75.6186 143.429C73.3689 143.429 71.4149 143.081 69.7563 142.385C68.1142 141.69 66.8498 140.687 65.9631 139.379C65.0763 138.053 64.633 136.455 64.633 134.583C64.633 132.711 65.0763 131.121 65.9631 129.812C66.8498 128.487 68.1142 127.485 69.7563 126.805C71.4149 126.11 73.3689 125.762 75.6186 125.762C77.8847 125.762 79.8388 126.11 81.4809 126.805C83.123 127.485 84.3874 128.487 85.2742 129.812C86.1609 131.121 86.6043 132.711 86.6043 134.583C86.6043 136.455 86.1609 138.053 85.2742 139.379C84.3874 140.687 83.123 141.69 81.4809 142.385C79.8388 143.081 77.8847 143.429 75.6186 143.429ZM75.6186 140.025C76.5875 140.025 77.4742 139.917 78.2788 139.702C79.0835 139.47 79.7813 139.138 80.3725 138.708C80.9637 138.277 81.4152 137.739 81.7272 137.093C82.0557 136.43 82.2199 135.685 82.2199 134.856V134.285C82.2199 133.456 82.0557 132.719 81.7272 132.073C81.4152 131.427 80.9637 130.889 80.3725 130.458C79.7813 130.027 79.0835 129.704 78.2788 129.489C77.4742 129.257 76.5875 129.141 75.6186 129.141C74.6498 129.141 73.7631 129.257 72.9584 129.489C72.1538 129.704 71.4559 130.027 70.8647 130.458C70.2736 130.889 69.8138 131.427 69.4854 132.073C69.1734 132.719 69.0174 133.456 69.0174 134.285V134.856C69.0174 135.685 69.1734 136.43 69.4854 137.093C69.8138 137.739 70.2736 138.277 70.8647 138.708C71.4559 139.138 72.1538 139.47 72.9584 139.702C73.7631 139.917 74.6498 140.025 75.6186 140.025Z" fill="#959595"/>
<path d="M100.142 143.429C97.827 143.429 95.8893 143.098 94.3293 142.435C92.7693 141.756 91.5952 140.762 90.807 139.453C90.0352 138.128 89.6493 136.505 89.6493 134.583C89.6493 131.767 90.5443 129.597 92.3342 128.073C94.1241 126.532 96.7186 125.762 100.118 125.762C102.039 125.762 103.73 126.043 105.192 126.607C106.653 127.17 107.795 127.973 108.616 129.017C109.437 130.061 109.847 131.303 109.847 132.744H105.684C105.684 131.982 105.446 131.336 104.97 130.806C104.51 130.259 103.854 129.845 103 129.564C102.162 129.282 101.177 129.141 100.044 129.141C98.7958 129.141 97.7203 129.348 96.8171 129.762C95.914 130.176 95.2243 130.765 94.7481 131.527C94.2719 132.289 94.0337 133.2 94.0337 134.26V134.881C94.0337 135.941 94.2719 136.861 94.7481 137.639C95.2243 138.401 95.914 138.989 96.8171 139.404C97.7203 139.818 98.7958 140.025 100.044 140.025C101.243 140.025 102.269 139.892 103.123 139.627C103.977 139.362 104.634 138.965 105.093 138.434C105.57 137.904 105.808 137.258 105.808 136.496H109.872C109.872 137.904 109.469 139.13 108.665 140.174C107.86 141.217 106.727 142.021 105.266 142.584C103.821 143.147 102.113 143.429 100.142 143.429Z" fill="#959595"/>
<path d="M113.649 143.131V126.06H117.91V134.881L127.836 126.06H133.305L125.373 133.142L133.477 143.131H128.107L122.245 135.726L117.91 139.279V143.131H113.649Z" fill="#959595"/>
<path d="M148.688 143.131V129.688H141.224V126.06H160.363V129.688H152.924V143.131H148.688Z" fill="#959595"/>
<path d="M163.273 143.131V126.06H167.534V132.62H178.495V126.06H182.756V143.131H178.495V136.248H167.534V143.131H163.273Z" fill="#959595"/>
<path d="M187.279 143.131V126.06H204.619V129.439H191.54V132.794H203.092V136.124H191.54V139.727H204.816V143.131H187.279Z" fill="#959595"/>
<path d="M216.312 143.131V126.06H228.997C230.097 126.06 231.058 126.3 231.879 126.781C232.7 127.261 233.341 127.932 233.8 128.793C234.26 129.638 234.49 130.615 234.49 131.725C234.49 132.835 234.252 133.829 233.776 134.707C233.316 135.569 232.667 136.239 231.83 136.72C230.992 137.2 230.024 137.441 228.923 137.441H220.573V143.131H216.312ZM220.573 134.036H227.741C228.562 134.036 229.194 133.837 229.638 133.44C230.081 133.042 230.303 132.479 230.303 131.75C230.303 131.27 230.204 130.864 230.007 130.533C229.81 130.185 229.515 129.92 229.12 129.737C228.743 129.539 228.283 129.439 227.741 129.439H220.573V134.036Z" fill="#959595"/>
<path d="M247.702 143.429C245.453 143.429 243.499 143.081 241.84 142.385C240.198 141.69 238.934 140.687 238.047 139.379C237.16 138.053 236.717 136.455 236.717 134.583C236.717 132.711 237.16 131.121 238.047 129.812C238.934 128.487 240.198 127.485 241.84 126.805C243.499 126.11 245.453 125.762 247.702 125.762C249.968 125.762 251.923 126.11 253.565 126.805C255.207 127.485 256.471 128.487 257.358 129.812C258.245 131.121 258.688 132.711 258.688 134.583C258.688 136.455 258.245 138.053 257.358 139.379C256.471 140.687 255.207 141.69 253.565 142.385C251.923 143.081 249.968 143.429 247.702 143.429ZM247.702 140.025C248.671 140.025 249.558 139.917 250.363 139.702C251.167 139.47 251.865 139.138 252.456 138.708C253.047 138.277 253.499 137.739 253.811 137.093C254.139 136.43 254.304 135.685 254.304 134.856V134.285C254.304 133.456 254.139 132.719 253.811 132.073C253.499 131.427 253.047 130.889 252.456 130.458C251.865 130.027 251.167 129.704 250.363 129.489C249.558 129.257 248.671 129.141 247.702 129.141C246.734 129.141 245.847 129.257 245.042 129.489C244.238 129.704 243.54 130.027 242.948 130.458C242.357 130.889 241.898 131.427 241.569 132.073C241.257 132.719 241.101 133.456 241.101 134.285V134.856C241.101 135.685 241.257 136.43 241.569 137.093C241.898 137.739 242.357 138.277 242.948 138.708C243.54 139.138 244.238 139.47 245.042 139.702C245.847 139.917 246.734 140.025 247.702 140.025Z" fill="#959595"/>
<path d="M265.057 143.131L259.466 126.06H263.998L267.102 136.297C267.184 136.513 267.258 136.778 267.323 137.093C267.406 137.391 267.488 137.697 267.57 138.012C267.652 138.327 267.709 138.6 267.742 138.832H267.915C267.947 138.65 267.989 138.443 268.038 138.211C268.087 137.962 268.136 137.722 268.186 137.49C268.235 137.242 268.284 137.018 268.333 136.819C268.399 136.604 268.448 136.43 268.481 136.297L271.363 126.06H277.004L279.91 136.297C279.959 136.496 280.017 136.745 280.083 137.043C280.165 137.341 280.239 137.656 280.304 137.987C280.386 138.302 280.444 138.584 280.477 138.832H280.649C280.682 138.65 280.723 138.443 280.772 138.211C280.838 137.979 280.904 137.747 280.969 137.515C281.035 137.283 281.092 137.068 281.142 136.869C281.207 136.654 281.265 136.463 281.314 136.297L284.418 126.06H288.531L282.94 143.131H277.816L274.664 132.297C274.598 132.048 274.524 131.775 274.442 131.477C274.36 131.179 274.286 130.889 274.22 130.607C274.171 130.309 274.13 130.052 274.097 129.837H273.974C273.925 130.069 273.859 130.342 273.777 130.657C273.711 130.972 273.637 131.278 273.555 131.576C273.49 131.858 273.432 132.098 273.383 132.297L270.304 143.131H265.057Z" fill="#959595"/>
<path d="M291.048 143.131V126.06H308.389V129.439H295.31V132.794H306.862V136.124H295.31V139.727H308.586V143.131H291.048Z" fill="#959595"/>
<path d="M312.36 143.131V126.06H326.031C327.246 126.06 328.24 126.308 329.011 126.805C329.8 127.302 330.391 127.957 330.785 128.768C331.179 129.58 331.376 130.483 331.376 131.477C331.376 132.504 331.113 133.465 330.588 134.359C330.079 135.237 329.299 135.933 328.248 136.447L331.77 143.131H326.992L324.011 137.217H316.622V143.131H312.36ZM316.622 133.837H324.775C325.464 133.837 326.006 133.63 326.4 133.216C326.811 132.786 327.016 132.239 327.016 131.576C327.016 131.112 326.926 130.723 326.745 130.408C326.565 130.094 326.31 129.853 325.982 129.688C325.653 129.522 325.251 129.439 324.775 129.439H316.622V133.837Z" fill="#959595"/>
<path d="M353.108 143.429C350.858 143.429 348.904 143.081 347.246 142.385C345.603 141.69 344.339 140.687 343.452 139.379C342.566 138.053 342.122 136.455 342.122 134.583C342.122 132.711 342.566 131.121 343.452 129.812C344.339 128.487 345.603 127.485 347.246 126.805C348.904 126.11 350.858 125.762 353.108 125.762C355.374 125.762 357.328 126.11 358.97 126.805C360.612 127.485 361.877 128.487 362.763 129.812C363.65 131.121 364.093 132.711 364.093 134.583C364.093 136.455 363.65 138.053 362.763 139.379C361.877 140.687 360.612 141.69 358.97 142.385C357.328 143.081 355.374 143.429 353.108 143.429ZM353.108 140.025C354.077 140.025 354.963 139.917 355.768 139.702C356.573 139.47 357.271 139.138 357.862 138.708C358.453 138.277 358.904 137.739 359.216 137.093C359.545 136.43 359.709 135.685 359.709 134.856V134.285C359.709 133.456 359.545 132.719 359.216 132.073C358.904 131.427 358.453 130.889 357.862 130.458C357.271 130.027 356.573 129.704 355.768 129.489C354.963 129.257 354.077 129.141 353.108 129.141C352.139 129.141 351.252 129.257 350.448 129.489C349.643 129.704 348.945 130.027 348.354 130.458C347.763 130.889 347.303 131.427 346.975 132.073C346.663 132.719 346.507 133.456 346.507 134.285V134.856C346.507 135.685 346.663 136.43 346.975 137.093C347.303 137.739 347.763 138.277 348.354 138.708C348.945 139.138 349.643 139.47 350.448 139.702C351.252 139.917 352.139 140.025 353.108 140.025Z" fill="#959595"/>
<path d="M367.878 143.131V126.06H384.208V129.439H372.139V133.291H382.977V136.695H372.139V143.131H367.878Z" fill="#959595"/>
<path d="M394.433 143.131V126.06H401.059L404.532 134.285C404.664 134.566 404.811 134.939 404.976 135.403C405.156 135.867 405.337 136.355 405.518 136.869C405.715 137.383 405.887 137.838 406.035 138.236H406.207C406.339 137.871 406.495 137.449 406.675 136.968C406.856 136.488 407.036 136.008 407.217 135.527C407.398 135.047 407.554 134.641 407.685 134.31L411.183 126.06H417.636V143.131H413.4V133.341C413.4 133.026 413.4 132.678 413.4 132.297C413.416 131.916 413.432 131.543 413.449 131.179C413.465 130.814 413.474 130.491 413.474 130.21H413.276C413.194 130.491 413.079 130.823 412.932 131.204C412.8 131.585 412.669 131.966 412.538 132.347C412.406 132.728 412.283 133.059 412.168 133.341L407.981 143.131H403.941L399.754 133.341C399.59 132.959 399.434 132.578 399.286 132.197C399.138 131.8 399.007 131.427 398.892 131.079C398.793 130.731 398.703 130.442 398.621 130.21H398.424C398.44 130.425 398.448 130.707 398.448 131.054C398.465 131.402 398.473 131.775 398.473 132.173C398.489 132.57 398.498 132.959 398.498 133.341V143.131H394.433Z" fill="#959595"/>
<path d="M422.168 143.131V126.06H439.508V129.439H426.429V132.794H437.981V136.124H426.429V139.727H439.705V143.131H422.168Z" fill="#959595"/>
<path d="M449.293 143.131V129.688H441.83V126.06H460.968V129.688H453.53V143.131H449.293Z" fill="#959595"/>
<path d="M458.785 143.131L467.185 126.06H471.963L480.363 143.131H475.732L474.254 140.05H464.623L463.145 143.131H458.785ZM466.175 136.745H472.702L470.904 132.844C470.838 132.678 470.732 132.429 470.584 132.098C470.436 131.767 470.288 131.427 470.141 131.079C470.009 130.731 469.886 130.417 469.771 130.135C469.656 129.853 469.582 129.679 469.549 129.613H469.352C469.221 129.945 469.065 130.317 468.884 130.731C468.704 131.146 468.531 131.551 468.367 131.949C468.219 132.33 468.088 132.636 467.973 132.868L466.175 136.745Z" fill="#959595"/>
<path d="M483.145 143.131V126.06H492.333C494.418 126.06 496.208 126.391 497.702 127.054C499.197 127.7 500.346 128.661 501.151 129.936C501.956 131.195 502.358 132.752 502.358 134.608C502.358 136.447 501.956 138.004 501.151 139.279C500.346 140.538 499.197 141.499 497.702 142.162C496.208 142.808 494.418 143.131 492.333 143.131H483.145ZM487.406 139.727H492.111C492.965 139.727 493.745 139.627 494.451 139.428C495.174 139.213 495.798 138.907 496.323 138.509C496.849 138.095 497.251 137.59 497.53 136.993C497.809 136.38 497.949 135.676 497.949 134.881V134.31C497.949 133.514 497.809 132.819 497.53 132.222C497.251 131.609 496.849 131.104 496.323 130.707C495.798 130.292 495.174 129.978 494.451 129.762C493.745 129.547 492.965 129.439 492.111 129.439H487.406V139.727Z" fill="#959595"/>
<path d="M503.406 143.131L511.805 126.06H516.584L524.983 143.131H520.352L518.875 140.05H509.244L507.766 143.131H503.406ZM510.795 136.745H517.323L515.525 132.844C515.459 132.678 515.352 132.429 515.204 132.098C515.057 131.767 514.909 131.427 514.761 131.079C514.63 130.731 514.507 130.417 514.392 130.135C514.277 129.853 514.203 129.679 514.17 129.613H513.973C513.842 129.945 513.686 130.317 513.505 130.731C513.324 131.146 513.152 131.551 512.988 131.949C512.84 132.33 512.709 132.636 512.594 132.868L510.795 136.745Z" fill="#959595"/>
<path d="M530.235 143.131V129.688H522.772V126.06H541.911V129.688H534.472V143.131H530.235Z" fill="#959595"/>
<path d="M539.728 143.131L548.127 126.06H552.906L561.305 143.131H556.674L555.196 140.05H545.565L544.088 143.131H539.728ZM547.117 136.745H553.645L551.847 132.844C551.781 132.678 551.674 132.429 551.526 132.098C551.379 131.767 551.231 131.427 551.083 131.079C550.952 130.731 550.828 130.417 550.713 130.135C550.599 129.853 550.525 129.679 550.492 129.613H550.295C550.163 129.945 550.007 130.317 549.827 130.731C549.646 131.146 549.474 131.551 549.309 131.949C549.162 132.33 549.03 132.636 548.915 132.868L547.117 136.745Z" fill="#959595"/>
<path d="M2.26196 151H560.674" stroke="url(#paint0_linear_2123_101)" stroke-width="3" stroke-linecap="round"/>
<defs>
<linearGradient id="paint0_linear_2123_101" x1="2.26196" y1="151" x2="561.305" y2="151" gradientUnits="userSpaceOnUse">
<stop stop-color="#F94144"/>
<stop offset="0.5" stop-color="#2196F3"/>
<stop offset="1" stop-color="#F9C74F"/>
</linearGradient>
</defs>
</svg>
