<svg width="563" height="153" viewBox="0 0 563 153" fill="none" xmlns="http://www.w3.org/2000/svg">
<path d="M1 118.189C1 91.008 23.0347 68.9733 50.216 68.9733H512.089C539.27 68.9733 561.305 91.008 561.305 118.189V118.189H1V118.189Z" fill="#14213D"/>
<path d="M50.5981 118.189C33.8724 118.189 25.5095 107.275 25.5095 83.3182V32.8082C25.5095 10.9361 35.0924 0 54.2583 0C62.1553 0 68.2112 1.59715 72.4259 4.79146C76.6406 7.9414 79.5465 12.5554 81.1437 18.6335C82.7408 24.7115 83.5394 32.1205 83.5394 40.8605H60.6469V30.479C60.6469 27.9502 60.292 25.8428 59.5821 24.1569C58.9166 22.4267 57.4969 21.5616 55.323 21.5616C52.6168 21.5616 50.82 22.4711 49.9327 24.29C49.0897 26.109 48.6682 28.1055 48.6682 30.2794V87.0449C48.6682 90.1948 49.0675 92.768 49.8661 94.7644C50.709 96.7165 52.3284 97.6925 54.7241 97.6925C57.2086 97.6925 58.8501 96.7165 59.6487 94.7644C60.4916 92.768 60.9131 90.1504 60.9131 86.9118V68.9463H54.6576V49.9776H83.2732V118.189H73.89L69.8971 108.34C65.8155 115.616 59.3825 118.189 50.5981 118.189Z" fill="#F94144"/>
<path d="M92.59 118.189V1.06477H139.44V23.6911H116.414V46.5171H138.508V68.9734H116.414V95.3634H140.97V118.189H92.59Z" fill="#F94144"/>
<path d="M158.805 118.189V23.558H144.897V1.06477H196.139V23.558H182.23V118.189H158.805Z" fill="#F94144"/>
<path d="M199.466 118.189L210.779 1.06477H250.508L261.622 118.189H239.461L237.798 99.2897H223.69L222.226 118.189H199.466ZM225.353 80.5897H236.001L230.877 21.0292H229.812L225.353 80.5897Z" fill="#2196F3"/>
<path d="M268.809 118.189V1.06477H304.479L314.328 72.4708L324.111 1.06477H360.113V118.189H338.685V33.8064L325.242 118.189H304.213L289.971 33.8064V118.189H268.809Z" fill="#F9C74F"/>
<path d="M370.495 118.189V1.06477H417.344V23.6911H394.319V46.5171H416.413V68.9734H394.319V95.3634H418.875V118.189H370.495Z" fill="#F9C74F"/>
<path d="M436.71 118.189V23.558H422.801V1.06477H474.043V23.558H460.135V118.189H436.71Z" fill="#F9C74F"/>
<path d="M475.64 118.189L486.954 1.06477H526.683L537.796 118.189H515.636L513.972 99.2897H499.864L498.4 118.189H475.64ZM501.528 80.5897H512.175L507.051 21.0292H505.986L501.528 80.5897Z" fill="#F9C74F"/>
<path d="M1 118.189C1 91.008 23.0347 68.9733 50.216 68.9733H512.089C539.27 68.9733 561.305 91.008 561.305 118.189V118.189H1V118.189Z" fill="url(#paint0_linear_1814_62)"/>
<path d="M10.6063 143.428C8.43871 143.428 6.64061 143.097 5.21199 142.434C3.79978 141.772 2.74063 140.827 2.03452 139.601C1.34484 138.376 1 136.918 1 135.228V126.059H5.26125V135.029C5.26125 136.62 5.72104 137.854 6.64061 138.732C7.57661 139.593 8.8985 140.024 10.6063 140.024C12.3141 140.024 13.6277 139.593 14.5473 138.732C15.4833 137.854 15.9513 136.62 15.9513 135.029V126.059H20.1879V135.228C20.1879 136.918 19.8431 138.376 19.1534 139.601C18.4637 140.827 17.4046 141.772 15.976 142.434C14.5637 143.097 12.7739 143.428 10.6063 143.428Z" fill="#15223D"/>
<path d="M24.6241 143.13V126.059H28.5405L37.6049 134.632C37.7855 134.781 38.0072 134.996 38.27 135.278C38.5491 135.559 38.8365 135.858 39.1321 136.172C39.4276 136.471 39.6822 136.736 39.8956 136.968H40.1173C40.1009 136.636 40.0763 136.222 40.0434 135.725C40.027 135.228 40.0188 134.814 40.0188 134.483V126.059H44.083V143.13H40.2405L31.25 134.557C30.823 134.16 30.3797 133.721 29.9199 133.24C29.4601 132.76 29.0906 132.371 28.8115 132.072H28.6144C28.6308 132.288 28.6473 132.652 28.6637 133.166C28.6801 133.679 28.6883 134.259 28.6883 134.905V143.13H24.6241Z" fill="#15223D"/>
<path d="M48.6061 143.13V126.059H52.8674V139.502H63.656V143.13H48.6061Z" fill="#15223D"/>
<path d="M75.6186 143.428C73.3689 143.428 71.4149 143.08 69.7563 142.385C68.1142 141.689 66.8498 140.687 65.9631 139.378C65.0763 138.053 64.633 136.454 64.633 134.582C64.633 132.71 65.0763 131.12 65.9631 129.811C66.8498 128.486 68.1142 127.484 69.7563 126.805C71.4149 126.109 73.3689 125.761 75.6186 125.761C77.8847 125.761 79.8388 126.109 81.4809 126.805C83.123 127.484 84.3874 128.486 85.2742 129.811C86.1609 131.12 86.6043 132.71 86.6043 134.582C86.6043 136.454 86.1609 138.053 85.2742 139.378C84.3874 140.687 83.123 141.689 81.4809 142.385C79.8388 143.08 77.8847 143.428 75.6186 143.428ZM75.6186 140.024C76.5875 140.024 77.4742 139.916 78.2788 139.701C79.0835 139.469 79.7813 139.138 80.3725 138.707C80.9637 138.276 81.4152 137.738 81.7272 137.092C82.0557 136.429 82.2199 135.684 82.2199 134.855V134.284C82.2199 133.456 82.0557 132.718 81.7272 132.072C81.4152 131.426 80.9637 130.888 80.3725 130.457C79.7813 130.027 79.0835 129.703 78.2788 129.488C77.4742 129.256 76.5875 129.14 75.6186 129.14C74.6498 129.14 73.7631 129.256 72.9584 129.488C72.1538 129.703 71.4559 130.027 70.8647 130.457C70.2736 130.888 69.8138 131.426 69.4854 132.072C69.1734 132.718 69.0174 133.456 69.0174 134.284V134.855C69.0174 135.684 69.1734 136.429 69.4854 137.092C69.8138 137.738 70.2736 138.276 70.8647 138.707C71.4559 139.138 72.1538 139.469 72.9584 139.701C73.7631 139.916 74.6498 140.024 75.6186 140.024Z" fill="#15223D"/>
<path d="M100.142 143.428C97.827 143.428 95.8893 143.097 94.3293 142.434C92.7693 141.755 91.5952 140.761 90.807 139.452C90.0352 138.127 89.6493 136.504 89.6493 134.582C89.6493 131.766 90.5443 129.596 92.3342 128.072C94.1241 126.531 96.7186 125.761 100.118 125.761C102.039 125.761 103.73 126.042 105.192 126.606C106.653 127.169 107.795 127.972 108.616 129.016C109.437 130.06 109.847 131.302 109.847 132.743H105.684C105.684 131.981 105.446 131.335 104.97 130.805C104.51 130.258 103.854 129.844 103 129.563C102.162 129.281 101.177 129.14 100.044 129.14C98.7958 129.14 97.7203 129.347 96.8171 129.761C95.914 130.176 95.2243 130.764 94.7481 131.526C94.2719 132.288 94.0337 133.199 94.0337 134.259V134.88C94.0337 135.94 94.2719 136.86 94.7481 137.638C95.2243 138.4 95.914 138.989 96.8171 139.403C97.7203 139.817 98.7958 140.024 100.044 140.024C101.243 140.024 102.269 139.891 103.123 139.626C103.977 139.361 104.634 138.964 105.093 138.434C105.57 137.903 105.808 137.257 105.808 136.495H109.872C109.872 137.903 109.469 139.129 108.665 140.173C107.86 141.217 106.727 142.02 105.266 142.583C103.821 143.147 102.113 143.428 100.142 143.428Z" fill="#15223D"/>
<path d="M113.649 143.13V126.059H117.91V134.88L127.836 126.059H133.305L125.373 133.141L133.477 143.13H128.107L122.245 135.725L117.91 139.278V143.13H113.649Z" fill="#15223D"/>
<path d="M148.688 143.13V129.687H141.224V126.059H160.363V129.687H152.924V143.13H148.688Z" fill="#15223D"/>
<path d="M163.273 143.13V126.059H167.534V132.619H178.495V126.059H182.756V143.13H178.495V136.247H167.534V143.13H163.273Z" fill="#15223D"/>
<path d="M187.279 143.13V126.059H204.619V129.438H191.54V132.793H203.092V136.123H191.54V139.726H204.816V143.13H187.279Z" fill="#15223D"/>
<path d="M216.312 143.13V126.059H228.997C230.097 126.059 231.058 126.299 231.879 126.78C232.7 127.26 233.341 127.931 233.8 128.792C234.26 129.637 234.49 130.615 234.49 131.725C234.49 132.834 234.252 133.828 233.776 134.706C233.316 135.568 232.667 136.239 231.83 136.719C230.992 137.199 230.024 137.44 228.923 137.44H220.573V143.13H216.312ZM220.573 134.035H227.741C228.562 134.035 229.194 133.837 229.638 133.439C230.081 133.041 230.303 132.478 230.303 131.749C230.303 131.269 230.204 130.863 230.007 130.532C229.81 130.184 229.515 129.919 229.12 129.737C228.743 129.538 228.283 129.438 227.741 129.438H220.573V134.035Z" fill="#15223D"/>
<path d="M247.702 143.428C245.453 143.428 243.499 143.08 241.84 142.385C240.198 141.689 238.934 140.687 238.047 139.378C237.16 138.053 236.717 136.454 236.717 134.582C236.717 132.71 237.16 131.12 238.047 129.811C238.934 128.486 240.198 127.484 241.84 126.805C243.499 126.109 245.453 125.761 247.702 125.761C249.968 125.761 251.923 126.109 253.565 126.805C255.207 127.484 256.471 128.486 257.358 129.811C258.245 131.12 258.688 132.71 258.688 134.582C258.688 136.454 258.245 138.053 257.358 139.378C256.471 140.687 255.207 141.689 253.565 142.385C251.923 143.08 249.968 143.428 247.702 143.428ZM247.702 140.024C248.671 140.024 249.558 139.916 250.363 139.701C251.167 139.469 251.865 139.138 252.456 138.707C253.047 138.276 253.499 137.738 253.811 137.092C254.139 136.429 254.304 135.684 254.304 134.855V134.284C254.304 133.456 254.139 132.718 253.811 132.072C253.499 131.426 253.047 130.888 252.456 130.457C251.865 130.027 251.167 129.703 250.363 129.488C249.558 129.256 248.671 129.14 247.702 129.14C246.734 129.14 245.847 129.256 245.042 129.488C244.238 129.703 243.54 130.027 242.948 130.457C242.357 130.888 241.898 131.426 241.569 132.072C241.257 132.718 241.101 133.456 241.101 134.284V134.855C241.101 135.684 241.257 136.429 241.569 137.092C241.898 137.738 242.357 138.276 242.948 138.707C243.54 139.138 244.238 139.469 245.042 139.701C245.847 139.916 246.734 140.024 247.702 140.024Z" fill="#15223D"/>
<path d="M265.057 143.13L259.466 126.059H263.998L267.102 136.297C267.184 136.512 267.258 136.777 267.323 137.092C267.406 137.39 267.488 137.696 267.57 138.011C267.652 138.326 267.709 138.599 267.742 138.831H267.915C267.947 138.649 267.989 138.442 268.038 138.21C268.087 137.961 268.136 137.721 268.186 137.489C268.235 137.241 268.284 137.017 268.333 136.818C268.399 136.603 268.448 136.429 268.481 136.297L271.363 126.059H277.004L279.91 136.297C279.959 136.495 280.017 136.744 280.083 137.042C280.165 137.34 280.239 137.655 280.304 137.986C280.386 138.301 280.444 138.583 280.477 138.831H280.649C280.682 138.649 280.723 138.442 280.772 138.21C280.838 137.978 280.904 137.746 280.969 137.514C281.035 137.282 281.092 137.067 281.142 136.868C281.207 136.653 281.265 136.462 281.314 136.297L284.418 126.059H288.531L282.94 143.13H277.816L274.664 132.296C274.598 132.048 274.524 131.774 274.442 131.476C274.36 131.178 274.286 130.888 274.22 130.606C274.171 130.308 274.13 130.051 274.097 129.836H273.974C273.925 130.068 273.859 130.341 273.777 130.656C273.711 130.971 273.637 131.277 273.555 131.575C273.49 131.857 273.432 132.097 273.383 132.296L270.304 143.13H265.057Z" fill="#15223D"/>
<path d="M291.048 143.13V126.059H308.389V129.438H295.31V132.793H306.862V136.123H295.31V139.726H308.586V143.13H291.048Z" fill="#15223D"/>
<path d="M312.36 143.13V126.059H326.031C327.246 126.059 328.24 126.308 329.011 126.805C329.8 127.301 330.391 127.956 330.785 128.768C331.179 129.579 331.376 130.482 331.376 131.476C331.376 132.503 331.113 133.464 330.588 134.358C330.079 135.236 329.299 135.932 328.248 136.446L331.77 143.13H326.992L324.011 137.216H316.622V143.13H312.36ZM316.622 133.837H324.775C325.464 133.837 326.006 133.63 326.4 133.215C326.811 132.785 327.016 132.238 327.016 131.575C327.016 131.112 326.926 130.722 326.745 130.408C326.565 130.093 326.31 129.853 325.982 129.687C325.653 129.521 325.251 129.438 324.775 129.438H316.622V133.837Z" fill="#15223D"/>
<path d="M353.108 143.428C350.858 143.428 348.904 143.08 347.246 142.385C345.603 141.689 344.339 140.687 343.452 139.378C342.566 138.053 342.122 136.454 342.122 134.582C342.122 132.71 342.566 131.12 343.452 129.811C344.339 128.486 345.603 127.484 347.246 126.805C348.904 126.109 350.858 125.761 353.108 125.761C355.374 125.761 357.328 126.109 358.97 126.805C360.612 127.484 361.877 128.486 362.763 129.811C363.65 131.12 364.093 132.71 364.093 134.582C364.093 136.454 363.65 138.053 362.763 139.378C361.877 140.687 360.612 141.689 358.97 142.385C357.328 143.08 355.374 143.428 353.108 143.428ZM353.108 140.024C354.077 140.024 354.963 139.916 355.768 139.701C356.573 139.469 357.271 139.138 357.862 138.707C358.453 138.276 358.904 137.738 359.216 137.092C359.545 136.429 359.709 135.684 359.709 134.855V134.284C359.709 133.456 359.545 132.718 359.216 132.072C358.904 131.426 358.453 130.888 357.862 130.457C357.271 130.027 356.573 129.703 355.768 129.488C354.963 129.256 354.077 129.14 353.108 129.14C352.139 129.14 351.252 129.256 350.448 129.488C349.643 129.703 348.945 130.027 348.354 130.457C347.763 130.888 347.303 131.426 346.975 132.072C346.663 132.718 346.507 133.456 346.507 134.284V134.855C346.507 135.684 346.663 136.429 346.975 137.092C347.303 137.738 347.763 138.276 348.354 138.707C348.945 139.138 349.643 139.469 350.448 139.701C351.252 139.916 352.139 140.024 353.108 140.024Z" fill="#15223D"/>
<path d="M367.878 143.13V126.059H384.208V129.438H372.139V133.29H382.977V136.694H372.139V143.13H367.878Z" fill="#15223D"/>
<path d="M394.433 143.13V126.059H401.059L404.532 134.284C404.664 134.566 404.811 134.938 404.976 135.402C405.156 135.866 405.337 136.355 405.518 136.868C405.715 137.382 405.887 137.837 406.035 138.235H406.207C406.339 137.87 406.495 137.448 406.675 136.968C406.856 136.487 407.036 136.007 407.217 135.526C407.398 135.046 407.554 134.64 407.685 134.309L411.183 126.059H417.636V143.13H413.4V133.34C413.4 133.025 413.4 132.677 413.4 132.296C413.416 131.915 413.432 131.542 413.449 131.178C413.465 130.813 413.474 130.49 413.474 130.209H413.276C413.194 130.49 413.079 130.822 412.932 131.203C412.8 131.584 412.669 131.965 412.538 132.346C412.406 132.727 412.283 133.058 412.168 133.34L407.981 143.13H403.941L399.754 133.34C399.59 132.959 399.434 132.578 399.286 132.197C399.138 131.799 399.007 131.426 398.892 131.078C398.793 130.731 398.703 130.441 398.621 130.209H398.424C398.44 130.424 398.448 130.706 398.448 131.054C398.465 131.401 398.473 131.774 398.473 132.172C398.489 132.569 398.498 132.959 398.498 133.34V143.13H394.433Z" fill="#15223D"/>
<path d="M422.168 143.13V126.059H439.508V129.438H426.429V132.793H437.981V136.123H426.429V139.726H439.705V143.13H422.168Z" fill="#15223D"/>
<path d="M449.293 143.13V129.687H441.83V126.059H460.968V129.687H453.53V143.13H449.293Z" fill="#15223D"/>
<path d="M458.785 143.13L467.185 126.059H471.963L480.363 143.13H475.732L474.254 140.049H464.623L463.145 143.13H458.785ZM466.175 136.744H472.702L470.904 132.843C470.838 132.677 470.732 132.429 470.584 132.097C470.436 131.766 470.288 131.426 470.141 131.078C470.009 130.731 469.886 130.416 469.771 130.134C469.656 129.853 469.582 129.679 469.549 129.612H469.352C469.221 129.944 469.065 130.316 468.884 130.731C468.704 131.145 468.531 131.551 468.367 131.948C468.219 132.329 468.088 132.636 467.973 132.868L466.175 136.744Z" fill="#15223D"/>
<path d="M483.145 143.13V126.059H492.333C494.418 126.059 496.208 126.39 497.702 127.053C499.197 127.699 500.346 128.66 501.151 129.935C501.956 131.194 502.358 132.752 502.358 134.607C502.358 136.446 501.956 138.003 501.151 139.278C500.346 140.537 499.197 141.498 497.702 142.161C496.208 142.807 494.418 143.13 492.333 143.13H483.145ZM487.406 139.726H492.111C492.965 139.726 493.745 139.626 494.451 139.428C495.174 139.212 495.798 138.906 496.323 138.508C496.849 138.094 497.251 137.589 497.53 136.992C497.809 136.379 497.949 135.675 497.949 134.88V134.309C497.949 133.514 497.809 132.818 497.53 132.221C497.251 131.609 496.849 131.103 496.323 130.706C495.798 130.292 495.174 129.977 494.451 129.761C493.745 129.546 492.965 129.438 492.111 129.438H487.406V139.726Z" fill="#15223D"/>
<path d="M503.406 143.13L511.805 126.059H516.584L524.983 143.13H520.352L518.875 140.049H509.244L507.766 143.13H503.406ZM510.795 136.744H517.323L515.525 132.843C515.459 132.677 515.352 132.429 515.204 132.097C515.057 131.766 514.909 131.426 514.761 131.078C514.63 130.731 514.507 130.416 514.392 130.134C514.277 129.853 514.203 129.679 514.17 129.612H513.973C513.842 129.944 513.686 130.316 513.505 130.731C513.324 131.145 513.152 131.551 512.988 131.948C512.84 132.329 512.709 132.636 512.594 132.868L510.795 136.744Z" fill="#15223D"/>
<path d="M530.235 143.13V129.687H522.772V126.059H541.911V129.687H534.472V143.13H530.235Z" fill="#15223D"/>
<path d="M539.728 143.13L548.127 126.059H552.906L561.305 143.13H556.674L555.196 140.049H545.565L544.088 143.13H539.728ZM547.117 136.744H553.645L551.847 132.843C551.781 132.677 551.674 132.429 551.526 132.097C551.379 131.766 551.231 131.426 551.083 131.078C550.952 130.731 550.828 130.416 550.713 130.134C550.599 129.853 550.525 129.679 550.492 129.612H550.295C550.163 129.944 550.007 130.316 549.827 130.731C549.646 131.145 549.474 131.551 549.309 131.948C549.162 132.329 549.03 132.636 548.915 132.868L547.117 136.744Z" fill="#15223D"/>
<path d="M2.26208 151H560.674" stroke="url(#paint1_linear_1814_62)" stroke-width="3" stroke-linecap="round"/>
<defs>
<linearGradient id="paint0_linear_1814_62" x1="281.153" y1="68.9733" x2="281.153" y2="118.189" gradientUnits="userSpaceOnUse">
<stop stop-color="#14213D" stop-opacity="0"/>
<stop offset="1" stop-color="#14213D" stop-opacity="0.25"/>
</linearGradient>
<linearGradient id="paint1_linear_1814_62" x1="2.26208" y1="151" x2="561.305" y2="151" gradientUnits="userSpaceOnUse">
<stop stop-color="#F94144"/>
<stop offset="0.5" stop-color="#2196F3"/>
<stop offset="1" stop-color="#F9C74F"/>
</linearGradient>
</defs>
</svg>
